<?xml version="1.0" encoding="utf-8"?>
<!-- Generator: Adobe Illustrator 22.1.0, SVG Export Plug-In . SVG Version: 6.00 Build 0)  -->
<svg version="1.1" id="Layer_1" xmlns="http://www.w3.org/2000/svg" xmlns:xlink="http://www.w3.org/1999/xlink" x="0px" y="0px"
	 viewBox="0 0 512 512" style="enable-background:new 0 0 512 512;" xml:space="preserve">
<g>
	<path d="M479.2,270.4c-6.2-19.1-27-29.2-46.2-23l-45.6,15.2l-30.4-90.4l45.6-15.2c19.2-6.2,29.2-26.9,23.1-46.1
		c-6.2-19.1-27-29.2-46.2-23l-45.6,15.2l-15.8-47.2c-6.2-19.1-27-29.2-46.2-23S242.6,59.8,248.7,79l15.8,47.2l-93.8,31.3l-15.8-47.2
		c-6.2-19.1-27-29.2-46.2-23c-19.2,6.2-29.2,26.9-23.1,46.1l15.8,47.2l-45.5,15.1c-19.2,6.2-29.2,26.9-23.1,46.1
		c5,14.6,19.2,24.1,33.7,24.7c6.8,1,12.1-1.6,58-16.9l30.4,90.4l-45.6,15.2c-19.1,6.2-29.2,27-23.1,46.1c5,14.6,19.2,24.1,33.7,24.7
		c6.8,1,12.1-1.6,58-16.9l15.8,47.2c5.9,17,24.8,29.1,46.2,23c19.2-6.2,29.2-26.9,23.1-46.1L247.2,386l94-31.4l15.8,47.2
		c5.9,17,24.8,29.1,46.2,23c19.2-6.2,29.2-26.9,23.1-46.1l-15.8-47.2l45.6-15.2C475.3,310.3,485.4,289.5,479.2,270.4L479.2,270.4z
		 M223.9,317.8l-30.4-90.6l93.9-31.4l30.4,90.6L223.9,317.8L223.9,317.8z"/>
</g>
</svg>
